<svg xmlns="http://www.w3.org/2000/svg" xmlns:xlink="http://www.w3.org/1999/xlink">
    <defs />
    <symbol id="icon--04" viewBox="0 0 570 355">
        <path
            d="M263.7 178c0-100.8-50.1-177-131.1-177C51.5 1.1 1.4 77.3 1.4 178c0 100.8 50.1 177 131.1 177 81.1 0 131.2-76.2 131.2-177zm-37.8 0c0 89.5-30 155.3-93.3 155.3-63.4 0-93.3-65.9-93.3-155.3 0-89.5 30-155.3 93.3-155.3s93.3 65.9 93.3 155.3zM465.4 236h-139l139-195.2zm54 18.7c32.4 0 35.4 5.4 48.6 26.5h2.9v-71.8H568c-13.3 21.1-16.2 26.5-48.6 26.5h-21.6V6h-28L291 252.8v2h174.4v42.8c0 32.4-7.4 36.4-28.5 49.7v2.9h89.4v-2.9c-21.1-13.3-28.5-17.2-28.5-49.7v-42.8h21.6z" />
    </symbol>
    <symbol id="icon--4" viewBox="0 0 285 353.9">
        <path
            d="M176.9 236h-139l139-195.2zm54 18.7c32.4 0 35.4 5.4 48.6 26.5h2.9v-71.8h-2.9c-13.3 21.1-16.2 26.5-48.6 26.5h-21.6V5.9h-28L2.5 252.7v2h174.4v42.8c0 32.4-7.4 36.4-28.5 49.7v2.9h89.4v-2.9c-21.1-13.3-28.5-17.2-28.5-49.7v-42.8z" />
    </symbol>
    <symbol id="icon--back-arrow" viewBox="0 0 11 20">
        <path fill-rule="evenodd" clip-rule="evenodd"
            d="M9.192 2.637a1 1 0 0 0-1.414 0L.736 9.679l-.029.029a1 1 0 0 0 .022 1.436l7.049 7.048a1 1 0 1 0 1.414-1.414L2.83 10.415 9.192 4.05a1 1 0 0 0 0-1.414z"
            fill="#000" />
    </symbol>
    <symbol id="icon--bookmark" viewBox="0 0 20 24">
        <path fill="currentColor"
            d="M18 23l-.707.707A1 1 0 0 0 19 23h-1zM1 23H0a1.002 1.002 0 0 0 1.707.707L1 23zm8.5-8.5l.707-.707a.999.999 0 0 0-1.414 0l.707.707zM4 2h11V0H4v2zm13.333 2l-.375-2.167L9.5 1.708V13.5L17 23h2V4h-1.667zM2 23l7.5-9.5V1.708H2.042L2 4H0v19h2zm16.707-.707l-8.5-8.5-1.414 1.414 8.5 8.5 1.414-1.414zm-9.914-8.5l-8.5 8.5 1.414 1.414 8.5-8.5-1.414-1.414zM15 2a2 2 0 0 1 2 2h2a4 4 0 0 0-4-4v2zM4 0a4 4 0 0 0-4 4h2a2 2 0 0 1 2-2V0z" />
        <path
            d="M18 23l-.707.707A1 1 0 0 0 19 23h-1zM1 23H0a1.002 1.002 0 0 0 1.707.707L1 23zm8.5-8.5l.707-.707a.999.999 0 0 0-1.414 0l.707.707zM4 2h11V0H4v2zm13 2v19h2V4h-2zM2 23V4H0v19h2zm16.707-.707l-8.5-8.5-1.414 1.414 8.5 8.5 1.414-1.414zm-9.914-8.5l-8.5 8.5 1.414 1.414 8.5-8.5-1.414-1.414zM15 2a2 2 0 0 1 2 2h2a4 4 0 0 0-4-4v2zM4 0a4 4 0 0 0-4 4h2a2 2 0 0 1 2-2V0z" />
    </symbol>
    <symbol id="icon--close-large" viewBox="0 0 22 22">
        <path fill-rule="evenodd" clip-rule="evenodd"
            d="M2.134.366A1.25 1.25 0 1 0 .366 2.134l8.56 8.56-8.56 8.56a1.25 1.25 0 1 0 1.768 1.768l8.56-8.56 8.56 8.56a1.25 1.25 0 0 0 1.767-1.768l-8.56-8.56 8.56-8.56A1.25 1.25 0 0 0 19.253.366l-8.56 8.56-8.56-8.56z"
            fill="#000" />
    </symbol>
    <symbol id="icon--close-small" viewBox="0 0 21 21">
        <path fill-rule="evenodd" clip-rule="evenodd"
            d="M3.707 2.293a1 1 0 1 0-1.414 1.414L8.586 10l-6.293 6.293a1 1 0 1 0 1.414 1.414L10 11.414l6.293 6.293a1 1 0 1 0 1.414-1.414L11.414 10l6.293-6.293a1 1 0 1 0-1.414-1.414L10 8.586 3.707 2.293z"
            fill="currentColor" />
    </symbol>
    <symbol id="icon--cursor-pointer" viewBox="0 0 51 67">
        <path
            d="M43.447 45.804h0v-.012c.012-1.534.143-4.222.292-5.88v-.015c.154-2.173.129-3.702-.325-5.175-.451-1.465-1.306-2.807-2.66-4.65l-.003-.003c-1.188-1.594-2.076-2.657-2.856-3.171-.419-.276-.872-.441-1.367-.396-.394.036-.734.198-1.03.405l-.015-.055c-.442-1.65-1.457-3.06-2.585-3.88-.564-.41-1.199-.705-1.842-.766a2.237 2.237 0 0 0-1.516.376c-.04-.137-.084-.297-.134-.483-.332-1.238-.846-2.239-1.61-2.859-.804-.652-1.782-.802-2.818-.525-.465.125-.904.295-1.277.58-.388.298-.658.683-.838 1.162-.335.888-.384 2.174-.361 3.99h0v.012c.023.82.011 1.447-.024 1.91-.232-.754-.5-1.99-.876-3.934-.267-1.384-.724-3.477-1.178-5.559-.301-1.38-.601-2.754-.844-3.914l-.002-.009-.002-.008c-.598-2.549-.979-3.952-1.298-4.783-.162-.424-.322-.736-.51-.988a2.86 2.86 0 0 0-.55-.55 2.19 2.19 0 0 0-1.694-.47c-.65.099-1.235.497-1.664 1.164-.341.507-.451 1.157-.465 2.088-.015.952.074 2.345.252 4.448v.003c.254 2.873.714 7.157 1.02 9.585l.002.012.001.01c.36 2.299.777 5.935.914 8.028l.002.018.002.017c.144 1.278.182 2.608.212 3.86-.745-2.332-2.467-4.61-4.159-6.039-.89-.752-1.851-1.338-2.731-1.526-.448-.096-.932-.101-1.38.09-.466.197-.803.567-1.005 1.046-.083.192-.142.41-.141.653.001.246.064.473.164.683.182.384.516.76.92 1.163.455.494.847 1.066 1.51 2.691.675 1.652 1.604 4.327 3.156 8.996l.007.024.03.099a80.533 80.533 0 0 0 .458 1.483c.26.815.594 1.82.808 2.232.079.15.21.332.338.5.139.18.313.394.505.624.386.46.863 1.006 1.325 1.526a160.222 160.222 0 0 0 1.654 1.83l.113.123.03.033.001.001c5.588 6.495 8.15 8.695 11.546 9.643h0l.013.004c1.264.329 2.902.102 4.438-.41 1.555-.52 3.13-1.372 4.291-2.433 1.12-1.023 2.246-2.376 3.168-3.756.914-1.367 1.665-2.813 1.998-4.037.354-1.146.556-3.347.59-4.826zm-13.7-22.627l-.002-.002.002.002zm-7.42 4.05l.006-.011a.042.042 0 0 1-.006.01z"
            fill="#fff" stroke="#000" stroke-width="1.5" />
    </symbol>
    <symbol id="icon--down-arrow" viewBox="0 0 19.3 10.4">
        <path fill="currentColor"
            d="M10.18 10.18a.75.75 0 0 1-1.06 0l-8.9-8.9A.75.75 0 0 1 1.28.22l8.37 8.37L18 .22a.75.75 0 0 1 1.06 1.06z" />
    </symbol>
    <symbol id="icon--email" viewBox="0 0 22 14">
        <path
            d="M20.308 0c.224 0 .439.043.634.118l-9.44 8.026c-.329.28-.694.28-1.022 0L1.058.118C1.253.043 1.468 0 1.692 0h18.616zm1.675 1.388c.01.074.017.15.017.227v10.77c0 .22-.049.43-.132.622l-6.514-5.973 6.628-5.646zm-21.965 0l6.61 5.637L.123 13A1.559 1.559 0 0 1 0 12.385V1.615c0-.076.007-.153.017-.227zm7.88 6.723l1.454 1.245c.924.788 2.354.787 3.279 0l1.454-1.237 6.417 5.873c-.063.006-.13.008-.194.008H1.692c-.061 0-.125-.003-.185-.008l6.39-5.881z"
            fill="#000" fill-opacity=".2" />
    </symbol>
    <symbol id="icon--facebook" viewBox="0 0 18 18">
        <path
            d="M16.998 0H1.002C.45 0 0 .449 0 1.002v15.996C0 17.55.449 18 1.002 18H9v-7.875H6.75v-2.25H9V6.187c0-2.812 1.708-3.937 3.375-3.937.96 0 2.01-.033 2.25 0v1.912h-1.688c-1.687 0-1.687 1.257-1.687 2.026v1.687h2.899l-.348 2.25H11.25V18h5.748C17.55 18 18 17.551 18 16.998V1.002C18 .45 17.551 0 16.998 0z"
            fill="#000" fill-opacity=".2" />
    </symbol>
    <symbol id="icon--forward-arrow" viewBox="0 0 11 20">
        <path fill-rule="evenodd" clip-rule="evenodd"
            d="M1.415 2.726a1 1 0 0 0 0 1.414l6.36 6.359-6.388 6.388A1 1 0 1 0 2.801 18.3l7.045-7.044.052-.049a1.001 1.001 0 0 0 0-1.414c-.016-.017-.034-.036-.05-.05L2.828 2.725a1 1 0 0 0-1.414 0z"
            fill="#000" />
    </symbol>
    <symbol id="icon--grab-bars" viewBox="0 0 17 14">
        <path d="M1 7h15M1 1h15M1 13h15" stroke="#000" stroke-width="2" stroke-linecap="round" />
    </symbol>
    <symbol id="icon--kebab-horiz" viewBox="0 0 20 5">
        <circle cx="2.5" cy="2.5" r="2.5" fill="#000" />
        <circle cx="10" cy="2.5" r="2.5" fill="#000" />
        <circle cx="17.5" cy="2.5" r="2.5" fill="#000" />
    </symbol>
    <symbol id="icon--logo" viewBox="0 0 299 32">
        <path fill-rule="evenodd" clip-rule="evenodd"
            d="M181.193 12.496c0-6.925-4.599-11.871-11.044-11.871-6.444 0-11.043 4.946-11.043 11.87 0 6.926 4.599 11.872 11.043 11.872 6.445 0 11.044-4.946 11.044-11.871zm-19.561 0c0-6.134 3.336-10.42 8.517-10.42 5.182 0 8.518 4.286 8.518 10.42 0 6.133-3.336 10.42-8.518 10.42-5.181 0-8.517-4.287-8.517-10.42zM5 1.05H0v23h5v-10h8v10h5v-23h-5v10H5v-10zm43.299 0H43v23h3V6.13l5.565 17.92h2.98L60 5.807V24.05h5v-23h-6.206L53.53 17.885 48.3 1.05zM86 1.05h4.559L100 17.358V1.05h3v23h-4.407L89 7.255V24.05h-3v-23zm-12.5 0h3.829l7.157 23h-4.23l-2.06-6.038h-6.907L69.37 24.05h-2.707l6.837-23zm1.186 4.608l-2.6 9.392h5.23l-2.63-9.392zM107 1.05h5v20h7v3h-12v-23zm19.793 10.428L121.968 1.05h-5.095L123 13.655V24.05h5V13.785l6.285-12.735h-2.412l-5.08 10.428zM147 1.05h-1v23h1v-23zm40.356 17.085c0 2.308.874 4.616 3.66 4.616 2.655 0 4.825-2.341 4.825-6.298v-5.045c0-1.715-1.036-2.375-2.235-3.133v-.198h4.372V20.51c0 2.13.466 2.428 1.793 3.275l.086.055v.198h-4.016v-4.023c-.875 2.803-2.85 4.353-5.603 4.353-3.206 0-5.019-2.11-5.019-5.738v-7.221c0-1.715-1.037-2.375-2.235-3.133v-.198h4.372v10.058zm21.676 5.638c-2.494-.692-3.141-1.088-3.141-2.934V16.65c0-3.66 1.846-6.958 4.21-6.958 1.166 0 1.716.726 1.619 1.946.939.099 1.878-.56 1.878-1.748 0-1.286-.939-2.144-2.526-2.144-2.72 0-4.307 2.309-5.181 4.815l-.13-4.485h-4.242v.198c1.198.758 2.234 1.418 2.234 3.133v9.101c0 2.13-.465 2.428-1.792 3.275l-.086.055v.198h7.157v-.264zM225.029 6.1c0 2.638 1.748 3.89 4.631 4.616l2.688.693c3.53.923 5.57 2.572 5.57 6.43 0 4.386-3.692 6.53-7.611 6.53-2.558 0-4.793-.99-5.861-1.815l-1.458 1.814h-.226l-.389-7.09h.389c1.748 3.858 4.113 5.738 7.545 5.738 3.368 0 5.474-1.847 5.474-4.98 0-2.274-1.425-3.792-3.952-4.45l-2.947-.76c-3.724-.956-5.958-2.637-5.958-6.199 0-3.627 2.882-6.001 6.93-6.001 2.396 0 4.21.923 5.279 1.484L236.59.625h.194v6.43h-.291c-1.781-3.231-3.271-5.111-6.639-5.111-2.688 0-4.825 1.517-4.825 4.155zm18.288-3.43c-.454 3.265-1.166 5.31-3.886 5.87v.791h2.59v10.75c0 2.671 1.717 4.287 4.275 4.287 2.591 0 4.21-2.078 4.404-5.144l-.615-.1c-.421 2.474-1.522 3.595-3.271 3.595-1.651 0-2.623-1.022-2.623-2.902V9.33h5.538l.162-1.253h-5.7V2.67h-.874zm16.501 21.698c-4.469 0-7.675-3.496-7.675-8.31s3.206-8.31 7.675-8.31c4.469 0 7.675 3.496 7.675 8.31s-3.206 8.31-7.675 8.31zm0-15.268c-3.4 0-5.246 2.803-5.246 6.958s1.846 6.99 5.246 6.99c3.4 0 5.246-2.835 5.246-6.99 0-4.154-1.846-6.958-5.246-6.958zm16.463 14.674c-2.494-.692-3.142-1.088-3.142-2.934V16.65c0-3.66 1.846-6.958 4.21-6.958 1.166 0 1.717.726 1.62 1.946.939.099 1.878-.56 1.878-1.748 0-1.286-.939-2.144-2.526-2.144-2.72 0-4.307 2.309-5.182 4.815l-.129-4.485h-4.242v.198c1.198.758 2.234 1.418 2.234 3.133v9.101c0 2.13-.466 2.428-1.792 3.275l-.086.055v.198h7.157v-.264zm8.418-11.805c-.842-2.011-1.619-2.803-2.655-3.693v-.198h5.311v.198c-.842.528-1.231.824-1.231 1.286 0 .453.151.81.409 1.42.081.191.171.407.272.658l4.015 9.859 3.919-9.86c.356-.923.453-1.285.453-1.78 0-.56-.68-1.022-1.716-1.583v-.198h5.149v.198c-1.036.89-1.749 1.682-2.591 3.693l-6.121 14.905c-1.068 2.605-1.975 4.584-4.469 4.584-1.425 0-2.429-.924-2.429-2.177 0-.89.713-1.715 1.652-1.945a5.116 5.116 0 0 0-.065.66c0 .89.551 1.549 1.425 1.549 1.134 0 1.846-1.055 2.656-2.968l1.101-2.506-5.085-12.102zM27 1.05h-5v14c0 6.563 2.438 9.203 7.267 9.203 2.567 0 4.022-.647 5.429-1.273.231-.103.462-.206.696-.305L39 20.925V1.05h-5v20c-.286.127-1.693.744-3.41.744-2.578 0-3.59-1.619-3.59-4.744v-16z"
            fill="currentColor" />
    </symbol>
    <symbol id="icon--microphone" viewBox="0 0 20 34">
        <path fill-rule="evenodd" clip-rule="evenodd"
            d="M5 9.406a5 5 0 0 1 10 0v8a5 5 0 0 1-10 0v-8zM2 14.75a1 1 0 0 1 1 1v2.233c0 3.71 3.106 6.767 7 6.767s7-3.057 7-6.767V15.75a1 1 0 0 1 2 0v2.233c0 4.537-3.522 8.23-8 8.713v2.679h3.5a1 1 0 0 1 0 2h-9a1 1 0 0 1 0-2H9v-2.679c-4.478-.483-8-4.176-8-8.713V15.75a1 1 0 0 1 1-1z"
            fill="#000" />
    </symbol>
    <symbol id="icon--pause-large" viewBox="0 0 16 24">
        <path fill-rule="evenodd" clip-rule="evenodd"
            d="M2.5 0A2.5 2.5 0 0 0 0 2.5v19a2.5 2.5 0 1 0 5 0v-19A2.5 2.5 0 0 0 2.5 0zm11 0A2.5 2.5 0 0 0 11 2.5v19a2.5 2.5 0 1 0 5 0v-19A2.5 2.5 0 0 0 13.5 0z"
            fill="#000" />
    </symbol>
    <symbol id="icon--pause-mini" viewBox="0 0 13 18">
        <path fill-rule="evenodd" clip-rule="evenodd"
            d="M2 0a2 2 0 0 0-2 2v14a2 2 0 1 0 4 0V2a2 2 0 0 0-2-2zm9 0a2 2 0 0 0-2 2v14a2 2 0 1 0 4 0V2a2 2 0 0 0-2-2z"
            fill="#000" />
    </symbol>
    <symbol id="icon--pause-small" viewBox="0 0 13 18">
        <path fill-rule="evenodd" clip-rule="evenodd"
            d="M2 0a2 2 0 0 0-2 2v14a2 2 0 0 0 4 0V2a2 2 0 0 0-2-2zm9 0a2 2 0 0 0-2 2v14a2 2 0 0 0 4 0V2c0-.646-.307-1.221-.783-1.587A1.99 1.99 0 0 0 11 0z"
            fill="#000" />
    </symbol>
    <symbol id="icon--pencil" viewBox="0 0 28 28">
        <path
            d="M20.364 1.979a2 2 0 0 1 2.828 0l2.829 2.828a2 2 0 0 1 0 2.829L10.244 23.412l-6.85 1.194 1.193-6.85L20.364 1.978z"
            stroke="#000" fill="#fff" stroke-width="2" stroke-linejoin="round" />
        <path d="M6.222 17.535l4.243 4.243M17.536 4.807l5.656 5.656" stroke="#000" stroke-width="2"
            stroke-linejoin="round" />
    </symbol>
    <symbol id="icon--play-large" viewBox="0 0 19 26">
        <path
            d="M17.19 11.762a1.5 1.5 0 0 1 0 2.476L2.348 24.394C1.351 25.075 0 24.362 0 23.156V2.844C0 1.638 1.351.924 2.347 1.606l14.844 10.156z"
            fill="#000" />
    </symbol>
    <symbol id="icon--play-mini" viewBox="0 0 12 16">
        <path
            d="M10.128 6.752a1.5 1.5 0 0 1 0 2.496l-7.796 5.197C1.335 15.11 0 14.395 0 13.197V2.803C0 1.605 1.335.89 2.332 1.555l7.796 5.197z"
            fill="#000" />
    </symbol>
    <symbol id="icon--play-next" viewBox="0 0 17 20">
        <path fill-rule="evenodd" clip-rule="evenodd"
            d="M14.5 0A1.5 1.5 0 0 0 13 1.5v6.437L2.35.615C1.355-.069 0 .644 0 1.851v16.297c0 1.208 1.355 1.92 2.35 1.236L13 12.062V18.5a1.5 1.5 0 0 0 1.5 1.5h1a1.5 1.5 0 0 0 1.5-1.5v-17A1.5 1.5 0 0 0 15.5 0h-1z"
            fill="#000" />
    </symbol>
    <symbol id="icon--play-previous" viewBox="0 0 17 20">
        <path fill-rule="evenodd" clip-rule="evenodd"
            d="M2.5 20A1.5 1.5 0 0 0 4 18.5v-6.437l10.65 7.322c.995.684 2.35-.029 2.35-1.236V1.852c0-1.208-1.354-1.92-2.35-1.236L4 7.938V1.5A1.5 1.5 0 0 0 2.5 0h-1A1.5 1.5 0 0 0 0 1.5v17A1.5 1.5 0 0 0 1.5 20h1z"
            fill="#000" />
    </symbol>
    <symbol id="icon--play-small" viewBox="0 0 15 20">
        <path
            d="M13.128 8.752a1.5 1.5 0 0 1 0 2.496L2.332 18.445C1.335 19.11 0 18.395 0 17.197V2.803C0 1.605 1.335.89 2.332 1.555l10.796 7.197z"
            fill="#000" />
    </symbol>
    <symbol id="icon--read-inactive" viewBox="0 0 50 50">
        <path fill-rule="evenodd" clip-rule="evenodd"
            d="M16.974 12.961A3 3 0 0 0 13 15.8v14.92a4 4 0 0 0 2.703 3.784l9.773 3.349a1 1 0 0 0 .85.094l10.006-3.442a4 4 0 0 0 2.7-3.783V15.803a3 3 0 0 0-3.977-2.837l-9.018 3.102-9.064-3.107zM15 15.8a1 1 0 0 1 1.324-.946l8.637 2.96v17.748l-8.61-2.95a2 2 0 0 1-1.351-1.892v-14.92zm20.706-.942a1 1 0 0 1 1.325.946V30.72a2 2 0 0 1-1.35 1.891l-8.681 2.986V17.851l8.706-2.994z"
            fill="#000" />
    </symbol>
    <symbol id="icon--record-active" viewBox="0 0 25 25">
        <circle cx="12.5" cy="12.5" r="12.5" fill="#F55353" />
    </symbol>
    <symbol id="icon--replay" viewBox="0 0 26 30">
        <path fill-rule="evenodd" clip-rule="evenodd"
            d="M3.686 7.765a1 1 0 0 1 0-1.644L12.181.236a1 1 0 0 1 1.569.822v3.908c6.554.387 11.75 5.826 11.75 12.477 0 6.903-5.596 12.5-12.5 12.5S.5 24.346.5 17.443a2 2 0 0 1 4 0 8.5 8.5 0 1 0 9.25-8.468v3.853a1 1 0 0 1-1.57.822L3.687 7.765z"
            fill="#000" />
    </symbol>
    <symbol id="icon--resource-inactive" viewBox="0 0 50 50">
        <path d="M26 37h-6a3 3 0 0 1-3-3V18a3 3 0 0 1 3-3h11a3 3 0 0 1 3 3v11" stroke="#000" stroke-width="2" />
        <path d="M26 37v-8h8l-8 8z" stroke="#000" stroke-width="2" stroke-linejoin="round" />
    </symbol>
    <symbol id="icon--resource-mini" viewBox="0 0 14 19">
        <path fill="none" stroke="#000" stroke-width="1.6"
            d="M8 18H3a2 2 0 0 1-2-2V3a2 2 0 0 1 2-2h8a2 2 0 0 1 2 2v10.278" />
        <path fill="none" stroke="#000" stroke-width="1.6" stroke-linejoin="round" d="M8 18v-5h5l-5 5z" />
    </symbol>
    <symbol id="icon--restart" viewBox="0 0 26 19">
        <path fill-rule="evenodd" clip-rule="evenodd"
            d="M7.208 7a5.516 5.516 0 0 1 5.308-4c.963 0 1.864.245 2.649.674a1.5 1.5 0 0 0 1.44-2.632A8.498 8.498 0 0 0 12.515 0a8.515 8.515 0 0 0-8.384 7h-2.6a1 1 0 0 0-.778 1.629l3.968 4.909a1 1 0 0 0 1.556 0l3.968-4.91A1 1 0 0 0 9.468 7h-2.26zm12.514-1.538a1 1 0 0 1 1.556 0l3.968 4.91A1 1 0 0 1 24.468 12h-2.602c-.727 4.004-4.312 7-8.558 7a8.822 8.822 0 0 1-3.9-.902 1.5 1.5 0 1 1 1.323-2.692 5.825 5.825 0 0 0 2.577.594c2.632 0 4.805-1.71 5.477-4h-2.253a1 1 0 0 1-.778-1.629l3.968-4.909z"
            fill="#000" />
    </symbol>
    <symbol id="icon--say-inactive" viewBox="0 0 50 50">
        <path
            d="M13 31.484h1a1 1 0 0 0-.444-.83l-.556.83zm1.704 5.828l-.704-.71.704.71zM19.057 33v-1a1 1 0 0 0-.704.29l.704.71zM10 24a8 8 0 0 1 8-8v-2c-5.523 0-10 4.477-10 10h2zm3.556 6.653A7.991 7.991 0 0 1 10 24H8a9.991 9.991 0 0 0 4.444 8.315l1.112-1.662zM14 36.602v-5.118h-2v5.118h2zm0 0h-2c0 1.777 2.145 2.672 3.408 1.42L14 36.603zm4.353-4.312L14 36.602l1.408 1.42 4.353-4.312-1.408-1.42zM31 32H19.057v2H31v-2zm8-8a8 8 0 0 1-8 8v2c5.523 0 10-4.477 10-10h-2zm-8-8a8 8 0 0 1 8 8h2c0-5.523-4.477-10-10-10v2zm-13 0h13v-2H18v2z"
            fill="#000" />
    </symbol>
    <symbol id="icon--search-large" viewBox="0 0 30 27">
        <path fill-rule="evenodd" clip-rule="evenodd"
            d="M21.015 12.114c0 5.058-4.057 9.113-9.007 9.113-4.95 0-9.008-4.055-9.008-9.113C3 7.055 7.058 3 12.008 3c4.95 0 9.007 4.055 9.007 9.114zm-.478 8.526a11.919 11.919 0 0 1-8.53 3.587C5.377 24.227 0 18.804 0 12.114 0 5.424 5.376 0 12.008 0c6.631 0 12.007 5.424 12.007 12.114a12.14 12.14 0 0 1-1.65 6.133l6.954 5.905c.63.534.72 1.494.203 2.145a1.444 1.444 0 0 1-2.077.209l-6.908-5.866z"
            fill="#000" fill-opacity=".3" />
    </symbol>
    <symbol id="icon--send-inactive" viewBox="0 0 50 50">
        <path
            d="M20.461 24.92L18.03 35.582c-.218.954.923 1.62 1.647.962l19.56-17.762c.675-.613.243-1.737-.67-1.74L25 17H12.108c-.984 0-1.376 1.27-.564 1.826l8.917 6.094zm0 0l18.025-6.98"
            stroke="#000" stroke-width="2" stroke-linecap="round" stroke-linejoin="round" />
    </symbol>
    <symbol id="icon--send-mini" viewBox="0 0 20.59 19.73">
        <path
            d="M10.49 19.73h-.35A2 2 0 0 1 8.5 18l-.85-6.37-6.13-1.52A2 2 0 0 1 1.3 6.3L17.89.13a2 2 0 0 1 2.19.55 2 2 0 0 1 .28 2.24l-8.1 15.72a2 2 0 0 1-1.77 1.09zm-.88-8.52l.87 6.52 6.94-13.47zM15.78 3L2 8.17l6.28 1.55z" />
    </symbol>
    <symbol id="icon--stop-large" viewBox="0 0 21 21">
        <rect width="21" height="21" rx="3" fill="#000" />
    </symbol>
    <symbol id="icon--test" viewBox="274.5 306.5 60 60">
        <circle fill="none" stroke="#000" cx="304.5" cy="336.5" r="29.5" />
        <circle cx="304.5" cy="336.5" r="9.7" />
        <path d="M307.6 313.5c4 .5 7.8 2 11 4.5l2.2-2.2c-3.8-3-8.4-5-13.2-5.5v3.2z" />
        <path fill="none" stroke="#000" stroke-width="3" d="M304.5 336.5l-13.8 13.8" />
        <path d="M323 322.4c2.4 3.2 4 7 4.5 11h3.2c-.6-4.8-2.5-9.4-5.5-13.2l-2.2 2.2z" />
        <path fill="none" stroke="#000" stroke-width="3" d="M304.5 336.5H285" />
        <path d="M327.5 339.6c-.5 4-2 7.8-4.5 11l2.2 2.2c3-3.8 5-8.4 5.5-13.2h-3.2z" />
        <path fill="none" stroke="#000" stroke-width="3" d="M304.5 336.5l-13.8-13.8" />
        <path d="M290.4 318c3.2-2.4 7-4 11-4.5v-3.2c-4.8.6-9.4 2.5-13.2 5.5l2.2 2.2z" />
        <path fill="none" stroke="#000" stroke-width="3" d="M304.5 336.5V356" />
        <path d="M318.6 355c-3.2 2.4-7 4-11 4.5v3.2c4.8-.6 9.4-2.5 13.2-5.5l-2.2-2.2z" />
        <path fill="none" stroke="#000" stroke-width="3" d="M304.5 336.5V317" />
        <path d="M301.4 359.5c-4-.5-7.8-2-11-4.5l-2.2 2.2c3.8 3 8.4 5 13.2 5.5v-3.2z" />
        <path fill="none" stroke="#000" stroke-width="3" d="M304.5 336.5l13.8-13.8" />
        <path d="M286 350.6c-2.4-3.2-4-7-4.5-11h-3.2c.6 4.8 2.5 9.4 5.5 13.2l2.2-2.2z" />
        <path fill="none" stroke="#000" stroke-width="3" d="M304.5 336.5H324" />
        <path d="M281.5 333.4c.5-4 2-7.8 4.5-11l-2.2-2.2c-3 3.8-5 8.4-5.5 13.2h3.2z" />
        <path fill="none" stroke="#000" stroke-width="3" d="M304.5 336.5l13.8 13.8" />
    </symbol>
    <symbol id="icon--tick" viewBox="0 0 16 12">
        <path fill-rule="evenodd" clip-rule="evenodd"
            d="M15.149.293a1 1 0 0 0-1.414 0L5.246 8.782l-3.539-3.54A1 1 0 0 0 .293 6.658l4.242 4.242a.994.994 0 0 0 .524.275 1.005 1.005 0 0 0 .898-.274l9.192-9.193a1 1 0 0 0 0-1.414z"
            fill="#000" />
    </symbol>
    <symbol id="icon--twitter" viewBox="0 0 21 18">
        <path
            d="M21 2.127a8.272 8.272 0 0 1-2.474.72A4.537 4.537 0 0 0 20.42.327c-.831.524-1.753.9-2.738 1.109A4.19 4.19 0 0 0 14.538 0C12.16 0 10.23 2.035 10.23 4.548c0 .35.038.699.112 1.03-3.583-.194-6.758-2-8.882-4.746a4.703 4.703 0 0 0-.585 2.282c0 1.58.763 2.964 1.919 3.783a4.135 4.135 0 0 1-1.952-.569v.057c0 2.203 1.486 4.04 3.455 4.455a4.093 4.093 0 0 1-1.944.08c.55 1.805 2.141 3.12 4.026 3.155-1.48 1.219-3.335 1.947-5.352 1.947-.347 0-.693-.02-1.028-.066A11.724 11.724 0 0 0 6.604 18c7.92 0 12.256-6.924 12.256-12.93 0-.196 0-.393-.008-.59A9.009 9.009 0 0 0 21 2.128z"
            fill="#000" fill-opacity=".2" />
    </symbol>
    <symbol id="icon--up-arrow" viewBox="0 0 20 20">
        <mask id="a" fill="#fff">
            <path fill-rule="evenodd" clip-rule="evenodd"
                d="M9.429.53a.75.75 0 0 1 1.06 0l8.899 8.899a.75.75 0 1 1-1.06 1.06L9.958 2.121 1.591 10.49a.75.75 0 1 1-1.06-1.06L9.428.53z" />
        </mask>
        <path fill-rule="evenodd" clip-rule="evenodd"
            d="M9.429.53a.75.75 0 0 1 1.06 0l8.899 8.899a.75.75 0 1 1-1.06 1.06L9.958 2.121 1.591 10.49a.75.75 0 1 1-1.06-1.06L9.428.53z"
            fill="#000" />
        <path
            d="M9.96 2.121L11.372.707a2 2 0 0 0-2.828 0l1.414 1.414zm1.944-3.005a2.75 2.75 0 0 0-3.89 0l2.829 2.829a1.25 1.25 0 0 1-1.768 0l2.829-2.829zm8.898 8.899L11.904-.884 9.075 1.945l8.899 8.898 2.828-2.828zm0 3.889a2.75 2.75 0 0 0 0-3.89l-2.828 2.829a1.25 1.25 0 0 1 0-1.768l2.828 2.829zm-3.889 0a2.75 2.75 0 0 0 3.89 0l-2.83-2.829a1.25 1.25 0 0 1 1.768 0l-2.828 2.829zM8.545 3.536l8.368 8.368 2.828-2.829L11.373.707 8.545 3.536zm-5.54 8.368l8.368-8.368L8.545.707.177 9.075l2.828 2.829zm-3.889 0a2.75 2.75 0 0 0 3.89 0L.175 9.075a1.25 1.25 0 0 1 1.769 0l-2.829 2.829zm0-3.89a2.75 2.75 0 0 0 0 3.89l2.829-2.829a1.25 1.25 0 0 1 0 1.768L-.884 8.015zM8.015-.883L-.884 8.015l2.829 2.828 8.898-8.898L8.015-.884z"
            fill="#000" mask="url(#a)" />
    </symbol>
    <symbol id="icon--your-space-shape-1" viewBox="0 0 944 666">
        <path
            d="M619.154 86.099c34.224 31.464 69.52 62.826 102.733 95.22 43.142 42.078 84.829 85.476 127.143 128.306 8.995 9.173 16.031 21.906 23.484 32.221 6.997 9.684 14.905 19.015 20.659 29.375 2.656 4.782 4.826 9.772 7.647 14.479 5.021 8.376 11.979 15.655 17.64 23.692 7.958 11.298 8.67 22.593 11.85 35.046 4.219 16.519 9.08 34.693 13.015 51.254 0 0-24.238 42.347-24.617 43.08-7.056 5.216-11.697 11.866-15.699 13.212-26.686 21.639-51.595 33.972-78.28 55.61l-69.596 29.787-26.586 7.095-16.565 6.048c-55.925 5.333-111.513 13.991-167.902 14.748-33.563.45-69.084-8.772-102.455-18.668-35.031-10.388-68.546-26.774-102.72-40.542-13.209-5.326-26.766-17.337-38.762-25.106-13.168-8.529-26.578-16.798-39.552-25.603-24.674-16.745-54.027-30.407-74.55-52.079-26.719-28.216-46.628-65.83-68.135-97.513-24.394-35.935-48.615-71.968-72.335-108.271-19.305-29.546-38.024-58.408-43.12-92.64-2.897-19.471-1.972-39.188 2.933-57.703 5.4-20.38 14.091-33.096 29.15-47.504 7.683-7.352 13.122-16.561 20.888-23.832 7.863-7.36 18.434-11.795 27.778-17.345 17.469-10.375 35.674-19.744 54.613-27.783 18.674-7.926 38.064-14.57 58.076-19.52a343.592 343.592 0 0 1 30.104-6.053c5.876-.906 25.335-6.265 30.692-3.258C332.407-2.5 411.581 15.966 489.235 24.72c10.39 1.171 20.717 3.887 31.073 5.887l98.846 55.493z"
            fill="#B6C6F9" />
    </symbol>
    <symbol id="icon--your-space-shape-2-3" viewBox="0 0 1951 1122">
        <path
            d="M1721.63 210.236c46.45 34.086 68.63 82.409 62.84 135.697-3.09 28.458-5.42 56.779-4.46 84.503 2.32 67.077 20.36 166.335 27.02 232.625 2.83 28.104-18.52 58.789-54.87 78.991-24.2 13.448-48.62 26.547-74.2 37.908-85.72 38.074-172.79 74.524-261 108.276-57.33 21.937-117.15 41.058-176.85 55.331-34.6 8.275-76.88 11.896-105.87 4.783-127.18-31.203-251.141-66.653-375.058-102.019-11.013-3.144-14.578-16.299-19.315-25.68-2.78-5.506-4.926-11.256-6.895-17.073-3.897-11.517-4.924-23.856-3.293-36.525l27.528-213.848c1.613-12.527 5.801-25.272 12.684-37.784a448.736 448.736 0 0 1 5.331-9.445c29.055-49.902 56.106-100.162 88.218-149.529 18.58-28.564 52.624-46.358 96.633-54.937 143.377-27.947 276.087-90.541 419.387-119.71 16.23-3.306 32.33-8.38 48.49-12.635l32.71-2.537 12.73-1.229 19.79-2.286c90-10.396 172.88 6.551 227.67 46.554l.78.569z"
            fill="#ADEAB0" />
        <path
            d="M57.678 316.935c24.476-38.478 87.938-77.966 124.885-104.136 21.402-15.159 47.327-20.955 75.606-15.556 17.359 3.314 35.586 1.102 53.022 4.142 22.308 3.89 44.952 8.497 66.137 16.482 43.834 16.521 87.946 33.115 129.847 54 60.508 30.158 126.448 40.67 189.148 62.506 24.292 8.46 48.987 16.636 71.856 28.257 26.497 13.464 34.725 37.842 29.33 65.202-2.967 15.044-9.262 29.362-14.342 43.902-8.272 23.678-19.227 46.653-24.717 71.015-15.109 67.046-28.416 134.559-41.539 202.086-2.668 13.726-2.887 25.826-14.367 34.846-12.603 9.902-33.066 12.547-48.406 14.417-40.154 4.895-63.885 9.591-104.723 10.094-8.258.101-16.519-.622-24.706-.428-9.833.233-18.867 2.37-28.526 3.719-28.626 3.999-52.957-6.069-74.574-23.701-51.168-41.735-100.83-85.086-141.101-137.76-6.653-8.703-12.227-18.447-20.188-25.938-52.637-49.526-118.66-89.643-157.438-145.031-14.254-20.358-27.073-41.88-43.062-60.831-29.806-35.329-31.136-65.643-2.142-97.287z"
            fill="#E6EDE7" />
    </symbol>
    <symbol id="icon--your-space-shape-4" viewBox="0 0 614 540">
        <path
            d="M89.707 24.747C127 4.145 171.664-3.848 215.241 2.023c23.272 3.136 46.572 5.895 69.989 7.023 56.655 2.729 143.237-.332 200.048.241 24.086.243 45.797 12.372 55.903 31.187 6.728 12.525 13.12 25.142 17.839 38.217 15.816 43.819 30.018 88.199 41.744 132.976 7.622 29.103 12.415 59.254 13.169 89.066.437 17.283-4.465 38.021-15.872 51.694-50.033 59.975-103.022 118.138-155.932 176.287-4.702 5.168-16.397 6.144-25.15 7.905-5.137 1.034-10.359 1.746-15.604 2.368-10.385 1.231-20.92 1.02-31.232-.5l-174.067-25.656c-10.197-1.503-20.093-4.269-29.287-8.331a369.056 369.056 0 0 1-6.915-3.131c-36.37-16.978-73.416-33.003-108.763-51.436-20.453-10.664-28.974-28.22-27.9-50.087C26.71 328.606-.836 260.563 1.623 189.292c.28-8.077-.952-16.184-1.484-24.277l4.016-16.034 1.36-6.25 1.8-9.742C15.5 88.682 45.267 49.403 89.083 25.092l.623-.345z"
            fill="#FF8363" />
    </symbol>
</svg>